<svg xmlns="http://www.w3.org/2000/svg" xmlns:xlink="http://www.w3.org/1999/xlink" xml:space="preserve" id="Layer_1" x="0" y="0" version="1.1" viewBox="0 0 180 180"><style>.st2{fill:#fff}.st9{fill:#303030;fill-opacity:5.000000e-02}</style><defs><path id="SVGID_1_" d="M18 0h144c9.9 0 18 8.1 18 18v144c0 9.9-8.1 18-18 18H18c-9.9 0-18-8.1-18-18V18C0 8.1 8.1 0 18 0"/></defs><clipPath id="SVGID_00000096056682476234511300000012470798810628189864_"><use xlink:href="#SVGID_1_" style="overflow:visible"/></clipPath><g style="clip-path:url(#SVGID_00000096056682476234511300000012470798810628189864_)"><path d="M18 0h144c9.9 0 18 8.1 18 18v144c0 9.9-8.1 18-18 18H18c-9.9 0-18-8.1-18-18V18C0 8.1 8.1 0 18 0" style="fill:#4a1ef8"/><path d="M0 0h180v180H0z" class="st2"/><linearGradient id="SVGID_00000092441530846666173080000013085623894974732421_" x1="4.82" x2="175.635" y1="399.392" y2="416.654" gradientTransform="translate(0 -318)" gradientUnits="userSpaceOnUse"><stop offset="0" style="stop-color:#33879e"/><stop offset="1" style="stop-color:#28d1b4;stop-opacity:.7"/></linearGradient><path d="M0 0h180v180H0z" style="fill:url(#SVGID_00000092441530846666173080000013085623894974732421_)"/></g><text class="st2" style="font-family:&quot;Arial-BoldMT&quot;;font-size:18.309px" transform="translate(50.703 115.159)">Repeater</text><path d="M101.6 150.7c-1.8 6.8-8.9 10.9-15.7 9.1q-3.3-.9-5.7-3.3l-.7-.7h5.7c1 0 1.7-.8 1.7-1.7s-.8-1.7-1.7-1.7h-9.9c-1 0-1.7.8-1.7 1.7v9.9c0 1 .8 1.7 1.7 1.7s1.7-.8 1.7-1.7v-5.7l.7.7c6.4 6.4 16.7 6.4 23 0 2-2 3.5-4.5 4.2-7.3.3-.9-.3-1.9-1.2-2.1-.9-.4-1.8.1-2.1 1.1m2.9-8.7c.3-.3.5-.8.5-1.2v-9.9c0-1-.8-1.7-1.7-1.7s-1.7.8-1.7 1.7v5.7l-.7-.7c-6.4-6.4-16.7-6.4-23 0-2 2-3.5 4.5-4.2 7.3-.3.9.2 1.9 1.2 2.2.9.3 1.9-.2 2.2-1.2v-.1c1.8-6.8 8.8-10.9 15.7-9.1 2.2.6 4.2 1.7 5.7 3.3l.5.7h-5.7c-1 0-1.7.8-1.7 1.7s.8 1.7 1.7 1.7h9.9c.5.1 1-.1 1.3-.4" style="fill-rule:evenodd;clip-rule:evenodd;fill:#303030;fill-opacity:5.000000e-02"/><path d="M100.7 149.9c-1.8 6.8-8.9 10.9-15.7 9.1q-3.3-.9-5.7-3.3l-.7-.7h5.7c1 0 1.7-.8 1.7-1.7s-.8-1.7-1.7-1.7h-9.9c-1 0-1.7.8-1.7 1.7v9.9c0 1 .8 1.7 1.7 1.7s1.7-.8 1.7-1.7v-5.7l.7.7c6.4 6.4 16.7 6.4 23 0 2-2 3.5-4.5 4.2-7.3.3-.9-.3-1.9-1.2-2.1-.9-.4-1.9.1-2.1 1.1m2.8-8.7c.3-.3.5-.8.5-1.2v-9.9c0-1-.8-1.7-1.7-1.7s-1.7.8-1.7 1.7v5.7l-.7-.7c-6.4-6.4-16.7-6.4-23 0-2 2-3.5 4.5-4.2 7.3-.3.9.2 1.9 1.2 2.2.9.3 1.9-.2 2.2-1.2v-.1c1.8-6.8 8.8-10.9 15.7-9.1 2.2.6 4.2 1.7 5.7 3.3l.7.7h-5.7c-1 0-1.7.8-1.7 1.7s.8 1.7 1.7 1.7h9.9c.4.1.8-.1 1.1-.4" style="fill-rule:evenodd;clip-rule:evenodd;fill:#fff"/><path d="m67.9 167.8 41.7-41.7" style="fill:none;stroke:#c9471f;stroke-width:3;stroke-linecap:round;stroke-linejoin:round;stroke-miterlimit:10"/><path d="M44.4 57.5c.6 1.3.5 3.2 1.3 4.2.1 0 .1.1.2.1 4.9-.3 5.2-5.8 2.8-8.4-1.1-1-2.6-1.4-4.5-.6-9.7 4.2-18.9 1.5-24.5-4.3-3-3-5.1-6.9-5.6-11.2-1.5-13.5 9.6-22 17.2-23 6.9-.8 13.2 1.6 17.6 6 4.7 4.7 7.2 11.7 5.7 19.8-.7 3.7-2.9 8.3-7.8 8.3-2 0-3.9-.9-5.3-2.3-1.3-1.2-2.2-2.9-2.2-4.8-.5-7.3 9-9.3 8.3-16.7-.1-1.3-.7-2.5-1.6-3.4-2.9-2.7-8.6-3.8-13.8-2.7-6.5 1.3-12.6 7.2-13.7 14.2-.9 5.7 1.1 12.2 5.4 16.6C27.6 53 33 55 39.7 53.5c2.2-.5 3.8-2.5 7.3-2 1.3.2 2.3.8 3 1.6 2.8 2.6 2.4 8.2-1.3 9.5-1.9.7-5.4.1-6.9-1.5-.2-.1-.4-.3-.5-.4-.6-.5-1-1.4-.9-2.5.1-1.5 1.1-2.7 2.2-2.6.4 0 .9.3 1.1.6.3.2.6.7.7 1.3m63.9-20.3c.4-.5.6-1.1.8-1.7.1-.6.2-1.1.2-1.6 0-.7-.1-1.3-.2-2s-.4-1.3-.8-1.8-.9-.9-1.6-1.3c-.7-.3-1.5-.4-2.5-.4h-2.4v10.9h1.8q1.95 0 3-.6c.8-.4 1.4-.9 1.7-1.5m5.3-4.2c0 1.3-.3 2.4-.8 3.4s-1.2 1.8-2.1 2.5c-.9.6-1.8 1.1-2.9 1.4s-2.2.4-3.4.4h-2.7v7.5c0 .4.1.8.2 1.1s.4.5.9.7c.2.1.6.1 1.1.2s1 .1 1.5.1v1.3H94.8v-1.3c.3 0 .7-.1 1.2-.1s.9-.1 1.1-.2c.4-.1.6-.4.8-.7.1-.3.2-.7.2-1.1V30.4c0-.4 0-.8-.2-1.1-.1-.4-.4-.6-.8-.7s-.9-.3-1.3-.3-.8-.1-1.1-.1v-1.3H106c2.3 0 4.2.5 5.6 1.7 1.3 1.1 2 2.5 2 4.4m-20-4.9c-.3 0-.6.1-1 .2s-.7.3-1.1.5c-.4.3-.7.5-1 .9s-.4.8-.7 1.4c-.8 2.7-1.7 5.9-2.8 9.4-1.1 3.6-2.3 7.4-3.5 11.5h-1.6l-6.2-19-6.5 19h-1.5c-1.2-4.1-2.3-8.3-3.5-12.7-1.3-4.4-2.1-7.3-2.5-8.8-.1-.4-.3-.7-.4-1-.2-.3-.5-.5-.9-.8-.3-.2-.6-.4-1-.4s-.8-.2-1.1-.2v-1.3h10.1v1.3c-.9 0-1.6.1-2.2.3-.6.1-.9.4-.9.6v.4c0 .2 0 .4.1.4.3 1 .8 2.7 1.4 5.1.7 2.4 1.7 5.9 3 10.6L76 27.2h1.7L83.8 46c.9-2.9 1.6-5.4 2.2-7.6s1.1-4 1.5-5.5c.3-1.1.4-1.8.5-2.2s.1-.7.1-1c0-.4-.3-.7-.8-1s-1.4-.4-2.6-.5V27h9zM166 44.3l-.5 7.3h-19.3v-1.3c.3 0 .7-.1 1.2-.1s.9-.1 1.1-.2c.4-.1.6-.4.8-.7s.2-.7.2-1.1V30.5c0-.4-.1-.7-.2-1s-.4-.5-.8-.7c-.3-.1-.6-.3-1.1-.4s-.9-.2-1.2-.2v-1.3h10.4v1.3c-.3 0-.8.1-1.3.2s-.9.2-1.1.3c-.4.1-.7.4-.8.7s-.2.7-.2 1.1V47c0 .8 0 1.3.1 1.8.1.4.3.8.5 1 .3.2.7.4 1.2.4.5.1 1.3.1 2.2.1h1.3c.4 0 .9-.1 1.3-.1.4-.1.8-.2 1.1-.3.4-.1.6-.3.8-.4.5-.5 1-1.3 1.7-2.4.6-1.1 1.1-2 1.3-2.6zm-20.8 7.3h-10.9v-1.3c.4 0 .9 0 1.5-.1s1-.2 1.3-.3c.4-.2.6-.4.8-.8.2-.3.3-.6.3-1.1V30.1h-.3l-8.4 21.1h-.9l-8-21.5h-.2v14.7q0 2.1.3 3.3c.2.7.4 1.3.9 1.6.3.3.8.5 1.6.7s1.3.4 1.6.4v1.3h-10l.4-1.3c.5 0 .7-.1 1.3-.3.6-.1 1-.3 1.3-.6q.6-.45.9-1.5c.1-.7.2-1.8.2-3.4V32q0-1.05-.3-1.8c-.2-.4-.4-.9-.8-1.1-.4-.3-.8-.5-1.3-.7-.5-.1-1-.2-1.6-.3v-1.3h8.4l7.1 18.5 6-15.5.6-1.8c.1-.6.2-1 .3-1.3h8.1V28c-.3 0-.7 0-1.3.1-.5.1-.9.2-1.1.3-.4.1-.7.4-.8.7s-.2.7-.2 1.1V48c0 .4.1.8.2 1 .1.3.4.5.8.7.2.1.6.2 1.1.3s.9.2 1.3.2v1.4z" class="st9"/><path d="M42.6 57.5c.6 1.3.5 3.2 1.3 4.2.1 0 .1.1.2.1 4.9-.3 5.2-5.8 2.8-8.4-1.1-1-2.6-1.4-4.5-.6-9.7 4.2-18.9 1.5-24.5-4.3-3-3-5.1-6.9-5.6-11.2-1.5-13.5 9.6-22 17.2-23 6.9-.8 13.2 1.6 17.6 6 4.7 4.7 7.2 11.7 5.7 19.8-.7 3.7-2.9 8.3-7.8 8.3-2 0-3.9-.9-5.3-2.3-1.3-1.2-2.2-2.9-2.2-4.8-.5-7.3 9-9.3 8.3-16.7-.1-1.3-.7-2.5-1.6-3.4-2.9-2.7-8.6-3.8-13.8-2.7-6.5 1.3-12.6 7.2-13.7 14.2-.9 5.7 1.1 12.2 5.4 16.6 3.8 3.7 9.2 5.8 15.9 4.2 2.2-.5 3.8-2.5 7.3-2 1.3.2 2.3.8 3 1.6 2.8 2.6 2.4 8.2-1.3 9.5-1.9.7-5.4.1-6.9-1.5-.2-.1-.4-.3-.5-.4-.6-.5-1-1.4-.9-2.5.1-1.5 1.1-2.7 2.2-2.6.4 0 .9.3 1.1.6.2.2.5.7.6 1.3m63.9-20.3c.4-.5.6-1.1.8-1.7.1-.6.2-1.1.2-1.6 0-.7-.1-1.3-.2-2s-.4-1.3-.8-1.8-.9-.9-1.6-1.3c-.7-.3-1.5-.4-2.5-.4H100v10.9h1.8q1.95 0 3-.6c.7-.4 1.4-.9 1.7-1.5m5.3-4.2c0 1.3-.3 2.4-.8 3.4s-1.2 1.8-2.1 2.5c-.9.6-1.8 1.1-2.9 1.4s-2.2.4-3.4.4h-2.7v7.5c0 .4.1.8.2 1.1s.4.5.9.7c.2.1.6.1 1.1.2s1 .1 1.5.1v1.3H93v-1.3c.3 0 .7-.1 1.2-.1s.9-.1 1.1-.2c.4-.1.6-.4.8-.7.1-.3.2-.7.2-1.1V30.4c0-.4 0-.8-.2-1.1-.1-.4-.4-.6-.8-.7s-.9-.3-1.3-.3-.8-.1-1.1-.1v-1.3h11.3c2.3 0 4.2.5 5.6 1.7 1.3 1.1 2 2.5 2 4.4m-20.1-4.9c-.3 0-.6.1-1 .2s-.7.3-1.1.5c-.4.3-.7.5-1 .9s-.4.8-.7 1.4c-.8 2.7-1.8 5.8-2.9 9.4s-2.3 7.4-3.5 11.5H80l-6.2-19-6.5 19h-1.5c-1.2-4.1-2.3-8.3-3.5-12.7-1.3-4.4-2.1-7.3-2.5-8.8-.1-.4-.3-.7-.4-1-.2-.3-.5-.5-.9-.8-.3-.2-.6-.4-1-.4s-.8-.2-1.1-.2v-1.3h10.1v1.3c-.9 0-1.6.1-2.2.3-.6.1-.9.4-.9.6v.4c0 .2 0 .4.1.4.3 1 .8 2.7 1.4 5.1.7 2.4 1.7 5.9 3 10.6L74 27.2h1.7L81.9 46c.9-2.9 1.6-5.4 2.2-7.6s1.1-4 1.5-5.5c.3-1.1.4-1.8.5-2.2s.1-.7.1-1c0-.4-.3-.7-.8-1s-1.4-.4-2.6-.5V27h9zm72.5 16.2-.5 7.3h-19.3v-1.3c.3 0 .7-.1 1.2-.1s.9-.1 1.1-.2c.4-.1.6-.4.8-.7.1-.3.2-.7.2-1.1V30.5c0-.4-.1-.7-.2-1s-.4-.5-.8-.7c-.3-.1-.6-.3-1.1-.4s-.9-.2-1.2-.2v-1.3h10.4v1.3c-.3 0-.8.1-1.3.2s-.9.2-1.1.3c-.4.1-.7.4-.8.7s-.2.7-.2 1.1V47c0 .8 0 1.3.1 1.8.1.4.3.8.5 1 .3.2.7.4 1.2.4.5.1 1.3.1 2.2.1h1.3c.4 0 .9-.1 1.3-.1.4-.1.8-.2 1.1-.3.4-.1.6-.3.8-.4.5-.5 1-1.3 1.7-2.4.6-1.1 1.1-2 1.3-2.6zm-20.8 7.3h-10.9v-1.3c.4 0 .9 0 1.5-.1s1-.2 1.3-.3c.4-.2.6-.4.8-.8.2-.3.3-.6.3-1.1V30.1h-.4l-8.4 21.1h-.9l-8-21.5h-.2v14.7q0 2.1.3 3.3c.2.7.4 1.3.9 1.6.3.3.8.5 1.6.7s1.3.4 1.6.4v1.3h-10l.4-1.3c.5 0 .7-.1 1.3-.3.6-.1 1-.3 1.3-.6q.6-.45.9-1.5c.1-.7.2-1.8.2-3.4V32q0-1.05-.3-1.8c-.2-.4-.4-.9-.8-1.1-.4-.3-.8-.5-1.3-.7-.5-.1-1-.2-1.6-.3v-1.3h8.4l7.1 18.5 6-15.5.6-1.8c.1-.6.2-1 .3-1.3h8.1V28c-.3 0-.7 0-1.3.1-.5.1-.9.2-1.1.3-.4.1-.7.4-.8.7s-.2.7-.2 1.1V48c0 .4.1.8.2 1 .1.3.4.5.8.7.2.1.6.2 1.1.3s.9.2 1.3.2v1.4zm-29.9 43.6h-8.2V62.4h21.8V70h-13.6v5.9h12.9v7.5h-12.9z" class="st2"/><path d="M103.1 81.5h8.1c-1.2 8.4-8.3 13.9-16.8 13.9-9.4 0-17-7-17-16.4 0-2.2.4-4.4 1.3-6.4.8-2 2.1-3.8 3.7-5.4 3.2-3.1 7.6-4.8 12.1-4.8 8.5 0 15.7 5.6 16.7 13.8h-8.1c-2.4-9.3-17.6-8.4-17.6 2.7 0 11.2 15.3 12 17.6 2.6" class="st9"/><path d="M101.5 81.5c-1.4 4.7-6.3 7.5-11.2 6.3s-7.9-5.9-6.9-10.7 5.7-8 10.7-7.2c2 .3 3.9 1.2 5.3 2.7 1 1 1.7 2.2 2.1 3.5h7.9c-1-8.2-8.3-13.8-16.7-13.8-4.5-.1-8.8 1.7-12.1 4.8-1.6 1.5-2.8 3.4-3.7 5.4-.8 2-1.3 4.2-1.3 6.4 0 9.4 7.6 16.4 17 16.4 8.5 0 15.6-5.5 16.8-13.9z" class="st2"/><path d="M77 90.5H65.6l-1.9 4.8H55l13.3-32.9h5.8L88 95.3h-9.2zm-8.2-8.2-.3.7H74l-.2-.6-2.6-7.1z" class="st9"/><path d="M74.8 90.5H63.5l-1.9 4.8h-8.7l13.3-32.9H72l13.9 32.9h-9.2zm-8.1-8.2-.3.7H72l-.2-.6-2.6-7.1z" class="st2"/><text class="st2" style="font-family:&quot;ArialMT&quot;;font-size:28px" transform="translate(29.69 89)">+</text></svg>